<svg id="Capa_1" enable-background="new 0 0 479.957 479.957" height="512" viewBox="0 0 479.957 479.957" width="512" xmlns="http://www.w3.org/2000/svg"><g><g><g><g><path d="m472.457 239.478c0 128.394-104.084 232.479-232.479 232.479s-232.478-104.084-232.478-232.479 104.084-232.478 232.479-232.478 232.478 104.084 232.478 232.478" fill="#faef93"/></g><g><path d="m256.075 456.873c-128.394 0-232.479-104.084-232.479-232.479 0-60.105 22.811-114.881 60.246-156.147-46.885 42.532-76.331 103.943-76.331 172.232 0 128.394 104.084 232.479 232.479 232.479 68.289 0 129.7-29.446 172.232-76.331-41.266 37.434-96.042 60.246-156.147 60.246z" fill="#efc17a"/></g><g><g><g><path d="m101.695 102.912-10.716-10.495c3.952-4.035 8.123-7.801 11.314-10.631l9.951 11.224c-3.194 2.832-6.946 6.223-10.549 9.902z" fill="#fff"/></g><g><path d="m123.465 83.976-9.037-11.972c3.895-2.939 8.445-6.092 12.814-8.877l8.063 12.649c-4.047 2.58-8.252 5.491-11.84 8.2z" fill="#fff"/></g></g></g><g><path d="m390.213 329.808h-15.404c-8.19 0-14.83-6.64-14.83-14.83 0-8.19 6.639-14.83 14.83-14.83h15.404c8.19 0 14.83 6.64 14.83 14.83-.001 8.191-6.64 14.83-14.83 14.83z" fill="#e08ea2"/></g><g><path d="m381.51 314.979c0-7.14 5.047-13.097 11.766-14.509-.989-.208-2.013-.321-3.063-.321h-15.404c-8.19 0-14.83 6.64-14.83 14.83s6.64 14.83 14.83 14.83h15.404c1.051 0 2.074-.113 3.063-.321-6.719-1.412-11.766-7.37-11.766-14.509z" fill="#d15573"/></g><g><path d="m104.039 329.808h-15.404c-8.19 0-14.83-6.64-14.83-14.83 0-8.19 6.64-14.83 14.83-14.83h15.404c8.19 0 14.83 6.64 14.83 14.83 0 8.191-6.639 14.83-14.83 14.83z" fill="#e08ea2"/></g><g><path d="m95.336 314.979c0-7.14 5.047-13.097 11.766-14.509-.989-.208-2.013-.321-3.063-.321h-15.404c-8.19 0-14.83 6.64-14.83 14.83s6.64 14.83 14.83 14.83h15.404c1.051 0 2.074-.113 3.063-.321-6.719-1.412-11.766-7.37-11.766-14.509z" fill="#d15573"/></g></g></g><g><path d="m409.669 70.288c-45.326-45.326-105.59-70.288-169.69-70.288s-124.365 24.962-169.691 70.288-70.288 105.59-70.288 169.691c0 59.889 22.186 117.243 62.47 161.497 40.012 43.954 94.482 71.4 153.377 77.283l1.49-14.926c-115.351-11.523-202.337-107.759-202.337-223.854 0-124.054 100.925-224.979 224.979-224.979s224.979 100.925 224.979 224.979c0 116.243-87.108 212.492-202.623 223.882l1.473 14.928c58.962-5.814 113.506-33.233 153.583-77.206 40.347-44.27 62.567-101.661 62.567-161.604-.001-64.101-24.963-124.365-70.289-169.691z"/><path d="m187.479 239.997v-30h-15v30c0 12.407-10.094 22.5-22.5 22.5s-22.5-10.093-22.5-22.5v-30h-15v30c0 20.678 16.822 37.5 37.5 37.5s37.5-16.823 37.5-37.5z"/><path d="m292.479 209.997v30c0 20.678 16.822 37.5 37.5 37.5s37.5-16.822 37.5-37.5v-30h-15v30c0 12.407-10.094 22.5-22.5 22.5s-22.5-10.093-22.5-22.5v-30z"/><path d="m279.675 274.95-19.819 19.819-19.972-19.972-19.814 19.813-19.662-19.66-10.605 10.606 30.267 30.267 19.814-19.813 19.972 19.972 30.426-30.425z"/><path d="m232.545 464.837-.486 14.992c5.246.17 10.582.17 15.817 0l-.486-14.992c-4.885.16-9.921.159-14.845 0z"/><path d="m352.479 314.979c0 12.313 10.018 22.33 22.33 22.33h15.404c12.313 0 22.329-10.017 22.329-22.33s-10.017-22.33-22.329-22.33h-15.404c-12.313 0-22.33 10.017-22.33 22.33zm22.33-7.33h15.404c4.041 0 7.329 3.288 7.329 7.33s-3.288 7.33-7.329 7.33h-15.404c-4.042 0-7.33-3.288-7.33-7.33s3.288-7.33 7.33-7.33z"/><path d="m66.306 314.979c0 12.313 10.017 22.33 22.329 22.33h15.404c12.313 0 22.33-10.017 22.33-22.33s-10.018-22.33-22.33-22.33h-15.404c-12.313 0-22.329 10.017-22.329 22.33zm45.063 0c0 4.042-3.288 7.33-7.33 7.33h-15.404c-4.041 0-7.329-3.288-7.329-7.33s3.288-7.33 7.329-7.33h15.404c4.042 0 7.33 3.288 7.33 7.33z"/></g></g></svg>