<svg id="Capa_1" enable-background="new 0 0 508.168 508.168" height="512" viewBox="0 0 508.168 508.168" width="512" xmlns="http://www.w3.org/2000/svg"><g><g><g><g><path d="m472.446 266.932c0 128.394-104.084 232.479-232.479 232.479s-232.478-104.085-232.478-232.479 104.084-232.479 232.479-232.479 232.478 104.084 232.478 232.479" fill="#faef93"/></g><g><path d="m448.863 164.818 49.85-22.841-14.342-38.615 14.342-38.615-37.443-17.157-17.156-37.443-38.615 14.342-38.615-14.342-22.473 49.046c45.308 22.825 82.122 60.029 104.452 105.625z" fill="#e08ea2"/></g><g><path d="m469.504 155.36c-21.397-43.939-55.043-80.803-96.49-106.179l11.314-24.5 38.615 14.342 29.236-11.272-8.065-17.602-38.615 14.342-38.615-14.342-22.473 49.046c45.308 22.824 82.122 60.028 104.452 105.624l12.469-5.713z" fill="#d15573"/></g><g><path d="m256.064 484.326c-128.394 0-232.479-104.084-232.479-232.479 0-60.105 22.811-114.881 60.246-156.147-46.885 42.533-76.331 103.943-76.331 172.232 0 128.394 104.084 232.479 232.479 232.479 68.289 0 129.7-29.446 172.232-76.331-41.266 37.435-96.042 60.246-156.147 60.246z" fill="#efc17a"/></g><g><path d="m470.599 237.498c-14.467-114.498-112.207-203.045-230.631-203.045s-216.165 88.547-230.631 203.045z" fill="#c09fde"/></g><g><path d="m24.037 237.498c3.317-54.45 25.361-103.841 59.794-141.798-39.802 36.107-67.025 85.822-74.345 141.798z" fill="#a070ce"/></g><g><g><g><path d="m101.695 130.431-10.716-10.496c3.956-4.039 8.124-7.802 11.313-10.63l9.951 11.224c-3.004 2.664-6.919 6.198-10.548 9.902z" fill="#fff"/></g><g><path d="m123.464 111.495-9.036-11.973c3.899-2.943 8.451-6.095 12.816-8.876l8.06 12.65c-4.042 2.576-8.246 5.487-11.84 8.199z" fill="#fff"/></g></g></g><g><path d="m202.479 305.052v97.446l4.299-3.434c19.426-15.518 47.007-15.518 66.433 0l4.299 3.434v-97.446z" fill="#68676b"/></g><g><path d="m273.211 375.319c-14.251-11.384-32.889-14.405-49.479-9.086v-61.181h-21.254v97.446c6.263-5.316 13.331-10.135 21.254-12.52 18.686-6.276 39.49-.661 53.778 12.52 0-5.916 0-17.857 0-23.745z" fill="#48474a"/></g><g><path d="m202.479 305.052h75.032v30.148h-75.032z" fill="#e5ecf5"/></g><g><path d="m202.479 305.052h21.254v30.148h-21.254z" fill="#cad8eb"/></g><g><path d="m202.479 402.498 4.299-3.434c19.426-15.518 47.007-15.518 66.433 0l4.299 3.434v37.511h-75.032v-37.511z" fill="#e08ea2"/></g><g><path d="m223.732 418.562v-28.584c-6.024 1.931-11.78 4.952-16.954 9.086l-4.299 3.434v37.51h75.032v-21.447h-53.779z" fill="#d15573"/></g><g><circle cx="149.979" cy="237.498" fill="#e5ecf5" r="37.498"/></g><g><path d="m166.609 258.366c-20.71 0-37.498-16.789-37.498-37.498 0-6.066 1.449-11.791 4.007-16.861-12.238 6.174-20.637 18.848-20.637 33.491 0 20.71 16.789 37.498 37.498 37.498 14.643 0 27.318-8.399 33.491-20.637-5.07 2.557-10.794 4.007-16.861 4.007z" fill="#cad8eb"/></g><g><circle cx="329.979" cy="237.498" fill="#e5ecf5" r="37.498"/></g><g><path d="m346.609 258.366c-20.71 0-37.498-16.789-37.498-37.498 0-6.066 1.449-11.791 4.007-16.861-12.238 6.174-20.637 18.848-20.637 33.491 0 20.71 16.789 37.498 37.498 37.498 14.643 0 27.318-8.399 33.491-20.637-5.07 2.557-10.794 4.007-16.861 4.007z" fill="#cad8eb"/></g></g></g><g><path d="m277.479 155.179v31.172l98.733-16.455-2.466-14.796-81.267 13.544v-13.465z"/><path d="m202.479 155.179h-15v13.465l-81.267-13.544-2.466 14.796 98.733 16.455z"/><path d="m239.979 27.519c-64.101 0-124.365 24.962-169.691 70.288s-70.288 105.59-70.288 169.691c0 59.889 22.186 117.244 62.47 161.497 40.012 43.954 94.481 71.4 153.376 77.283l1.491-14.926c-115.351-11.522-202.337-107.759-202.337-223.854 0-124.054 100.925-224.979 224.979-224.979s224.979 100.925 224.979 224.979c0 116.244-87.108 212.492-202.623 223.883l1.473 14.928c58.962-5.814 113.506-33.233 153.583-77.207 40.347-44.269 62.567-101.661 62.567-161.604 0-64.101-24.962-124.364-70.288-169.69s-105.59-70.289-169.691-70.289z"/><path d="m232.546 492.356-.488 14.992c5.249.171 10.559.171 15.818.001l-.484-14.992c-4.936.16-9.952.159-14.846-.001z"/><path d="m285.01 372.53h-15v15.327c-18.644-10.678-41.385-10.679-60.031 0v-45.157h60.031v14.789h15v-59.937h-90.031v149.957h90.031zm-15-59.978v15.148h-60.031v-15.148zm-60.031 119.956v-26.403c17.26-14.954 42.773-14.953 60.031 0v26.403z"/><path d="m104.98 237.498c0 24.812 20.186 44.999 44.999 44.999 24.812 0 44.998-20.186 44.998-44.999 0-24.812-20.186-44.998-44.998-44.998s-44.999 20.186-44.999 44.998zm74.997 0c0 16.541-13.457 29.999-29.998 29.999s-29.999-13.458-29.999-29.999 13.458-29.998 29.999-29.998 29.998 13.457 29.998 29.998z"/><path d="m284.98 237.498c0 24.812 20.187 44.999 44.999 44.999s44.998-20.186 44.998-44.999c0-24.812-20.187-44.998-44.998-44.998-24.812 0-44.999 20.186-44.999 44.998zm74.997 0c0 16.541-13.457 29.999-29.998 29.999-16.542 0-29.999-13.458-29.999-29.999s13.457-29.998 29.999-29.998c16.541 0 29.998 13.457 29.998 29.998z"/><path d="m508.168 60.83-41.241-18.897-18.896-41.241-42.531 15.797-42.533-15.797-16.179 35.31 13.636 6.248 10.377-22.647 34.699 12.887 34.697-12.887 15.416 33.645 33.645 15.417-12.887 34.697 12.887 34.697-23.551 10.792 6.248 13.636 36.213-16.594-15.795-42.531z"/></g></g></svg>