<svg id="Capa_1" enable-background="new 0 0 479.957 479.957" height="512" viewBox="0 0 479.957 479.957" width="512" xmlns="http://www.w3.org/2000/svg"><g><g><g><g><path d="m472.457 239.979c0 128.394-104.084 232.479-232.479 232.479s-232.478-104.085-232.478-232.479 104.084-232.479 232.479-232.479 232.478 104.084 232.478 232.479" fill="#e08ea2"/></g><g><path d="m256.064 456.372c-128.394 0-232.479-104.084-232.479-232.479 0-60.105 22.811-114.881 60.246-156.147-46.885 42.533-76.331 103.943-76.331 172.233 0 128.394 104.084 232.479 232.479 232.479 68.289 0 129.7-29.446 172.232-76.331-41.266 37.434-96.042 60.245-156.147 60.245z" fill="#d15573"/></g><g><g><g><path d="m101.695 102.912-10.716-10.496c3.954-4.036 8.123-7.801 11.313-10.63l9.952 11.224c-3.194 2.831-6.944 6.222-10.549 9.902z" fill="#fff"/></g><g><path d="m123.464 83.976-9.036-11.973c3.896-2.941 8.448-6.093 12.816-8.877l8.061 12.65c-4.045 2.578-8.25 5.49-11.841 8.2z" fill="#fff"/></g></g></g><g><path d="m123.53 200.581c1.615-5.224 4.526-9.69 8.272-13.152l49.645 15.346c1.138 4.972 1.022 10.302-.593 15.526-4.893 15.83-21.692 24.695-37.522 19.802-15.829-4.894-24.695-21.693-19.802-37.522z" fill="#e5ecf5"/></g><g><path d="m143.859 204.583c1.356-4.388 3.636-8.231 6.547-11.404l-18.605-5.751c-3.745 3.463-6.657 7.928-8.272 13.153-4.893 15.829 3.973 32.628 19.802 37.522 4.549 1.406 9.178 1.671 13.582.965-11.469-6.975-17.199-21.076-13.054-34.485z" fill="#cad8eb"/></g><g><path d="m360.798 200.581c-1.615-5.224-4.526-9.69-8.272-13.152l-49.645 15.346c-1.138 4.972-1.022 10.302.593 15.526 4.893 15.83 21.692 24.695 37.522 19.802 15.83-4.894 24.696-21.693 19.802-37.522z" fill="#e5ecf5"/></g><g><path d="m323.9 211.484c-1.557-5.038-1.709-10.172-.698-14.991l-20.321 6.281c-1.138 4.972-1.022 10.302.593 15.526 4.893 15.83 21.692 24.695 37.522 19.802 3.851-1.19 7.286-3.09 10.215-5.504-12.288-.555-23.469-8.686-27.311-21.114z" fill="#cad8eb"/></g><g><path d="m67.489 277.518h344.984v149.928h-344.984z" fill="#faef93"/></g><g><path d="m89.184 404.979-.191-127.461h-21.504v149.929h344.984l.192-22.468z" fill="#efc17a"/></g></g></g><g><path d="m232.544 464.837-.485 14.992c5.246.17 10.581.17 15.817 0l-.486-14.992c-4.886.16-9.92.159-14.846 0z"/><path d="m187.793 196.885-57.908-17.899c-24.238 18.278-18.162 57.392 11.233 66.282 29.094 9.16 56.363-19.255 46.675-48.383zm-53.652-.883 40.538 12.53c-3.231 40.562-60.251 17.702-40.538-12.53z"/><path d="m355.164 180.679-58.323 16.524c-10.366 28.892 16.213 57.939 45.518 49.47 32.662-6.694 34.025-46.387 12.805-65.994zm-16.894 51.563c-14.586 4.415-29.805-7.941-28.592-23.085l40.827-11.567c8.975 12.259 2.499 30.76-12.235 34.652z"/><path d="m366.512 146.084-81.427 23.274v-19.379h-15v39.267l100.549-28.739z"/><path d="m210.053 189.246v-39.267h-15v19.379l-81.427-23.274-4.122 14.423z"/><path d="m419.973 398.678c38.695-43.855 59.984-100.088 59.984-158.699 0-64.101-24.962-124.365-70.288-169.69-45.326-45.327-105.59-70.289-169.69-70.289s-124.365 24.962-169.691 70.288-70.288 105.59-70.288 169.691c0 58.614 21.29 114.848 59.989 158.705v36.263h40.055c34.086 24.502 74.068 39.643 115.802 43.812l1.491-14.926c-31.649-3.161-62.224-13.059-89.669-28.886h224.622c-27.528 15.876-58.201 25.783-89.955 28.914l1.472 14.928c41.848-4.126 81.935-19.277 116.107-43.842h40.06v-36.269zm-404.973-158.699c0-124.054 100.925-224.979 224.979-224.979s224.979 100.925 224.979 224.979c0 48.979-15.85 96.191-44.984 134.987v-104.947h-359.985v104.954c-29.137-38.798-44.989-86.012-44.989-134.994zm389.973 179.968h-329.984v-134.928h329.984z"/><path d="m109.676 387.197 13.927 5.571 7.113-17.782h16.059l-4.884 12.21 13.927 5.571 7.113-17.782h17.932v-15h-11.933l6.005-15.012h20.097v-15h-14.097l4.883-12.207-13.927-5.571-7.111 17.778h-16.06l4.883-12.207-13.927-5.571-7.111 17.778h-20.044v15h14.044l-6.005 15.012h-23.039v15h17.039zm33.044-42.222h16.059l-6.005 15.012h-16.059z"/><path d="m262.377 405.116.287-14.997c-50.499-1.42-49.089-75.514 1.53-74.968 25.578-.827 45.02 33.328 31.556 54.953-4.407 3.043-10.382.439-10.587-5.412v-12.074c-.779-29.851-44.507-29.856-45.286.001-.375 16.105 17.584 27.563 32.001 20.61 5.417 13.865 25.446 17.759 35.574 6.523 21.295-31.367-5.014-80.41-43.043-79.597-70.137-1.096-72.074 103.356-2.032 104.961zm.144-44.856c-10.044-.18-10.043-15.107 0-15.286 10.045.181 10.043 15.108 0 15.286z"/><path d="m330.021 299.979h15v75h-15z"/><path d="m330.021 389.979h15v15h-15z"/><path d="m360.021 299.979h15v75h-15z"/><path d="m360.021 389.979h15v15h-15z"/></g></g></svg>